<svg xmlns="http://www.w3.org/2000/svg" xml:space="preserve" width="2000" height="98" data-id="lg_YQguydTaycGZENIjlg" data-version="1" viewBox="0 0 2000 98"><g data-padding="20"><g transform="translate(10 1.75)scale(.96429)"><rect width="560" height="98.31" x="346.167" y="-380.345" fill="none" rx="0" ry="0" transform="translate(400.5 380.19)"/><path fill="#001f3f" d="M784.807 76.77h-6.87l-22.62-55.59h-6.35V17h26.44v4.18h-10.7l20.01 50.37h-2.96l20.36-50.37h-10.7V17h22.36v4.18h-6.35Zm43.41.35q-6.17 0-10.96-2.7-4.78-2.7-7.48-7.74-2.7-5.05-2.7-12.18 0-7.22 2.7-12.31t7.48-7.75q4.79-2.65 10.96-2.65l.18 4q-3.92 0-6.83 1.96-2.92 1.96-4.53 5.92t-1.61 10.13q0 8.18 4.01 12.79 4 4.61 10.87 4.61 4.52 0 7.44-1.82 2.91-1.83 4.39-4.62 1.48-2.78 1.83-5.56h3.91q-.08 3.22-1.34 6.43-1.27 3.22-3.66 5.79t-6.04 4.13q-3.66 1.57-8.62 1.57m19.84-23.75h-36.54v-4h28.36l8.18 2.69Zm0-1.31-8.18-2.69q-.09-3.92-1.39-7.01-1.31-3.09-3.83-4.83t-6.26-1.74l-.18-4q6.53 0 10.92 2.57 4.39 2.56 6.66 7.13 2.26 4.57 2.26 10.57m51.93 24.28h-22.36v-4.18h7.66V45.71q0-4.35-2.18-6.39-2.18-2.05-6-2.05-2.87 0-5.44 1.35t-4.13 4.22q-1.57 2.87-1.57 7.57h-1.48q0-6.26 1.74-10.4 1.74-4.13 5.22-6.13t8.61-2q5.92 0 9.75 3.22t3.83 10.35v26.71h6.35Zm-26.36 0h-24.19v-4.18h8.18V36.75h-7.31v-4.18h14.7v13.58l.96-.18v26.19h7.66Zm45.33.87q-6.35 0-9.48-3.96t-2.78-11.01l.61-25.23h-10.97v-4.09h3.92q3.65 0 5.78-.91 2.14-.91 3.01-2.96.87-2.04.87-5.26v-3.48h4.87v43.15q0 3.65 1.52 5.65 1.52 2.01 4.57 2.01 3.04 0 4.44-1.96 1.39-1.96 1.39-5.7V49.1h4.7v14.71q0 6.26-3.14 9.83-3.13 3.57-9.31 3.57m15.06-40.2h-19.23v-4.44h19.23Zm20.44 40.02q-4 0-7.09-1.43-3.09-1.44-4.87-4.53-1.79-3.09-1.79-7.87V36.75h-6.35v-4.18h14.62V63.2q0 4.26 2.26 6.35t6.09 2.09q2.96 0 5.53-1.35 2.56-1.35 4.17-4.26 1.61-2.92 1.61-7.53l1.65-.09q0 6.27-1.82 10.4-1.83 4.13-5.35 6.18-3.53 2.04-8.66 2.04m29.75-.69h-14.52V61.81l-1.05.17V36.75h-7.31v-4.18h15.66v39.59h7.22Z"/><path fill="#001f3f" d="M1013.097 76.34h-29.84v-4.18h8.18V36.75h-7.31v-4.18h14.79v14.97l.78-.18v24.8h13.4Zm-13.4-26.37h-2.35q.09-6.43 1.96-10.52t5.18-6.05q3.3-1.96 7.65-1.96 4.53 0 7.27 2.27 2.74 2.26 2.74 6.35 0 2.52-1.44 4.22-1.43 1.69-3.96 1.69-2.17 0-3.48-1.17-1.3-1.18-1.3-3 0-2.27 1.61-3.44t4.83-1l-.44 2.61q-.09-2.52-1.83-3.83-1.74-1.3-4.87-1.3-3.22 0-5.87 1.69-2.65 1.7-4.18 5.05-1.52 3.35-1.52 8.39m45.15 27.15q-6.17 0-10.96-2.7-4.78-2.7-7.48-7.74-2.7-5.05-2.7-12.18 0-7.22 2.7-12.31t7.48-7.75q4.79-2.65 10.96-2.65l.18 4q-3.92 0-6.83 1.96-2.92 1.96-4.53 5.92t-1.61 10.13q0 8.18 4.01 12.79 4 4.61 10.87 4.61 4.53 0 7.44-1.82 2.91-1.83 4.39-4.62 1.48-2.78 1.83-5.56h3.92q-.09 3.22-1.35 6.43-1.26 3.22-3.66 5.79-2.39 2.57-6.04 4.13-3.66 1.57-8.62 1.57m19.84-23.75h-36.54v-4h28.36l8.18 2.69Zm0-1.31-8.18-2.69q-.09-3.92-1.39-7.01-1.31-3.09-3.83-4.83t-6.26-1.74l-.18-4q6.53 0 10.92 2.57 4.4 2.56 6.66 7.13t2.26 10.57m49.42 24.28h-32.8v-4.18h8.7V21.18h-8.53V17h17.23v55.16h15.4Zm17.92-54.9h-33.32V17h33.32Zm-13.84 26.79h-19.48v-4.35h19.48Zm9.31-8.7V28.66q0-4-1.43-5.61-1.44-1.61-5.27-1.61h11.23v18.09Zm-9.31 4.35h-10.44q3.57 0 4.96-1.56 1.4-1.57 1.4-5.31v-7.57h4.08Zm-4.08 19.49v-8.35q0-3.83-1.4-5.31-1.39-1.48-4.96-1.48h10.44v15.14Zm40.28 13.92q-6.62 0-11.62-2.69-5-2.7-7.83-7.79t-2.83-12.31q0-7.31 2.83-12.4t7.83-7.79q5-2.69 11.62-2.69 6.61 0 11.57 2.69 4.96 2.7 7.78 7.79 2.83 5.09 2.83 12.4 0 7.22-2.83 12.31-2.82 5.09-7.78 7.79-4.96 2.69-11.57 2.69m0-4q4 0 6.91-2.26 2.92-2.26 4.53-6.53 1.61-4.26 1.61-10.35 0-5.83-1.61-9.96t-4.53-6.35q-2.91-2.22-6.91-2.22-4.01 0-6.92 2.22t-4.52 6.44-1.61 10.22q0 5.91 1.61 10.13t4.52 6.44 6.92 2.22m53.34 3.05h-29.84v-4.18h8.17V36.75h-7.3v-4.18h14.79v14.97l.78-.18v24.8h13.4Zm-13.4-26.37h-2.35q.09-6.43 1.96-10.52t5.17-6.05q3.31-1.96 7.66-1.96 4.52 0 7.26 2.27 2.75 2.26 2.75 6.35 0 2.52-1.44 4.22-1.44 1.69-3.96 1.69-2.17 0-3.48-1.17-1.3-1.18-1.3-3 0-2.27 1.61-3.44t4.82-1l-.43 2.61q-.09-2.52-1.83-3.83-1.74-1.3-4.87-1.3-3.22 0-5.87 1.69-2.66 1.7-4.18 5.05t-1.52 8.39m48.97 42.55h-11.14q-6.69 0-10.57-2.31-3.87-2.3-3.87-7.09 0-2.87 1.52-4.7 1.53-1.82 3.92-2.82t5-1.18l.44.7q-.96.43-2.09 1.3t-1.87 2.13q-.74 1.27-.74 3.01 0 3.48 2.52 5.26 2.53 1.78 7.22 1.78h9.66q3.65 0 5.87-1t3.22-2.7q1-1.69 1-3.69 0-2.79-1.74-4.22-1.74-1.44-5.04-1.44h-20.01q-5.31 0-8.66-2.65t-3.35-7q0-3.22 1.57-5.36 1.56-2.13 4.22-3.26 2.65-1.13 5.87-1.13l.43 1.83q-2.61.17-4.26 1.48-1.65 1.3-1.65 3.91 0 2.44 1.61 3.87 1.61 1.44 4.74 1.44h21.4q6 0 9.14 2.74 3.13 2.74 3.13 7.44 0 3.91-1.87 7t-5.7 4.87q-3.83 1.79-9.92 1.79m-6.09-31.32q-5.57 0-9.74-1.74-4.18-1.74-6.44-5.01-2.26-3.26-2.26-7.78 0-6.79 5.04-10.62 5.05-3.82 13.66-3.82l9.48 4.26q3.14.87 5.66 3.52 2.52 2.66 2.52 7.44 0 6.35-4.83 10.05-4.82 3.7-13.09 3.7m0-3.66q4.61 0 7.31-2.95 2.7-2.96 2.7-7.92 0-4.87-2.7-7.83t-7.31-2.96q-4.52 0-7.22 2.96t-2.7 7.83q0 4.96 2.7 7.92 2.7 2.95 7.22 2.95m24.01-21.05h-14.27l-9.48-4.26h23.75Zm21.23 40.63q-6.18 0-10.96-2.7-4.79-2.7-7.48-7.74-2.7-5.05-2.7-12.18 0-7.22 2.7-12.31 2.69-5.09 7.48-7.75 4.78-2.65 10.96-2.65l.17 4q-3.91 0-6.83 1.96-2.91 1.96-4.52 5.92t-1.61 10.13q0 8.18 4 12.79 4.01 4.61 10.88 4.61 4.52 0 7.44-1.82 2.91-1.83 4.39-4.62 1.48-2.78 1.83-5.56h3.91q-.08 3.22-1.35 6.43-1.26 3.22-3.65 5.79t-6.05 4.13q-3.65 1.57-8.61 1.57m19.84-23.75h-36.54v-4h28.36l8.18 2.69Zm0-1.31-8.18-2.69q-.09-3.92-1.39-7.01-1.31-3.09-3.83-4.83t-6.27-1.74l-.17-4q6.53 0 10.92 2.57 4.39 2.56 6.65 7.13 2.27 4.57 2.27 10.57"/></g><path fill="transparent" stroke="transparent" d="M720 0h560v98H720z"/></g></svg>